<svg width="17" height="22" viewBox="0 0 17 22" fill="none" xmlns="http://www.w3.org/2000/svg">
<path d="M4.78599 9.52143L6.60846 11.65M12.0771 9.52143L10.2547 11.65M7.21637 16.6214C7.51351 16.7743 8.10656 17.3314 8.43094 17.3314C8.75656 17.3314 9.34837 16.7743 9.64675 16.6214H7.21637ZM8.4297 1C4.02208 1 1.57932 3.78571 1.1398 7.39143C0.696559 10.72 1.30818 13.8629 2.96227 16.6214C3.75837 17.9829 4.80208 19.3014 6.00056 20.1729C7.57418 21.2757 9.28647 21.2757 10.8601 20.1729C12.0573 19.3014 13.101 17.9829 13.8984 16.6214C15.545 13.8586 16.1567 10.7214 15.7208 7.39143C15.2813 3.78429 12.8398 1 8.43094 1H8.4297Z" stroke="#111111" stroke-linecap="square" stroke-linejoin="round"/>
</svg>
