<svg width="21" height="20" viewBox="0 0 21 20" fill="none" xmlns="http://www.w3.org/2000/svg">
<path d="M8.00625 1.5C8.00625 0.67 8.67625 0 9.50625 0C10.3363 0 11.0063 0.67 11.0063 1.5C11.0063 2.33 10.3363 3 9.50625 3C8.67625 3 8.00625 2.33 8.00625 1.5ZM20.0063 6V9.5L18.9763 9.85C18.892 10.4456 18.5959 10.9908 18.1423 11.3857C17.6886 11.7806 17.1077 11.9987 16.5063 12H16.4263C16.2863 12.68 15.9563 13.29 15.5063 13.78V20H13.0063V15H12.7563C12.5463 15 12.3363 14.97 12.1363 14.94L7.69625 14.2L6.57625 16.21L7.32625 20H4.78625L4.00625 16.25C3.97625 15.95 4.00625 15.65 4.16625 15.39L5.18625 13.58C4.68987 13.3038 4.27394 12.9032 3.97937 12.4175C3.6848 11.9318 3.52175 11.3778 3.50625 10.81C3.46625 10.96 3.44625 11.18 3.47625 11.5C3.50625 11.94 3.61625 12.59 3.54625 13.31C3.50625 14.03 3.17625 14.77 2.75625 15.26C2.32625 15.75 1.85625 16.09 1.35625 16.35L0.656252 15.65C0.846252 15.18 1.03625 14.76 1.07625 14.37C1.13625 14 1.06625 13.7 0.956252 13.43L0.426252 12.3C0.216252 11.79 -0.0437481 11.05 0.00625186 10.18C0.0362519 9.33 0.506252 8.22 1.39625 7.61C2.29625 7 3.26625 6.91 4.05625 7.08C4.55625 7.18 5.06625 7.42 5.50625 7.76C5.87625 7.59 6.30625 7.5 6.75625 7.5H7.00625V6.11C7.00625 5.11 7.68625 4.19 8.66625 4.03C8.95336 3.98047 9.24782 3.99427 9.52904 4.07042C9.81026 4.14658 10.0714 4.28326 10.2943 4.4709C10.5172 4.65853 10.6964 4.8926 10.8194 5.15673C10.9423 5.42085 11.0061 5.70865 11.0063 6V7.5H12.5063V7C12.5063 4.79 14.2963 3 16.5063 3H20.0063L19.1163 4.34C19.6563 4.7 20.0063 5.31 20.0063 6ZM18.0063 9.2L16.9663 7.54C16.8363 7.33 16.5063 7.42 16.5063 7.67V11C17.3363 11 18.0063 10.33 18.0063 9.5V9.2Z" fill="black"/>
</svg>
