<svg width="24" height="25" viewBox="0 0 24 25" fill="none" xmlns="http://www.w3.org/2000/svg">
<path d="M18 8.5H20C20.2652 8.5 20.5196 8.60536 20.7071 8.79289C20.8946 8.98043 21 9.23478 21 9.5V21.5C21 21.7652 20.8946 22.0196 20.7071 22.2071C20.5196 22.3946 20.2652 22.5 20 22.5H4C3.73478 22.5 3.48043 22.3946 3.29289 22.2071C3.10536 22.0196 3 21.7652 3 21.5V9.5C3 9.23478 3.10536 8.98043 3.29289 8.79289C3.48043 8.60536 3.73478 8.5 4 8.5H6V7.5C6 5.9087 6.63214 4.38258 7.75736 3.25736C8.88258 2.13214 10.4087 1.5 12 1.5C13.5913 1.5 15.1174 2.13214 16.2426 3.25736C17.3679 4.38258 18 5.9087 18 7.5V8.5ZM16 8.5V7.5C16 6.43913 15.5786 5.42172 14.8284 4.67157C14.0783 3.92143 13.0609 3.5 12 3.5C10.9391 3.5 9.92172 3.92143 9.17157 4.67157C8.42143 5.42172 8 6.43913 8 7.5V8.5H16ZM11 14.5V16.5H13V14.5H11ZM7 14.5V16.5H9V14.5H7ZM15 14.5V16.5H17V14.5H15Z" fill="black"/>
</svg>
